<svg width="20" height="20" viewBox="0 0 20 20" fill="none" xmlns="http://www.w3.org/2000/svg">
<path d="M9.95068 13.9478C9.8068 13.9478 9.67399 13.9201 9.55225 13.8647C9.4305 13.8094 9.31152 13.7236 9.19531 13.6074L4.27295 8.63525C4.09033 8.45264 3.99902 8.23128 3.99902 7.97119C3.99902 7.70003 4.09033 7.47038 4.27295 7.28223C4.4611 7.09408 4.68799 7 4.95361 7C5.21924 7 5.45443 7.10238 5.65918 7.30713L9.95068 11.665L14.2422 7.30713C14.4469 7.10238 14.6821 7 14.9478 7C15.2134 7 15.4375 7.09408 15.6201 7.28223C15.8083 7.47038 15.9023 7.70003 15.9023 7.97119C15.9023 8.23128 15.811 8.45264 15.6284 8.63525L10.7061 13.6074C10.4902 13.8343 10.2384 13.9478 9.95068 13.9478Z" fill="#90909F"/>
</svg>
