<svg width="22" height="22" viewBox="0 0 22 22" fill="none" xmlns="http://www.w3.org/2000/svg">
<path d="M11.2753 17.551C10.0341 17.551 8.82079 17.183 7.78878 16.4934C6.75678 15.8038 5.95243 14.8237 5.47745 13.677C5.00248 12.5303 4.8782 11.2686 5.12034 10.0512C5.36248 8.83389 5.96017 7.7157 6.83782 6.83806C7.71546 5.96041 8.83365 5.36273 10.051 5.12058C11.2683 4.87844 12.5301 5.00272 13.6768 5.4777C14.8235 5.95268 15.8036 6.75702 16.4932 7.78903C17.1827 8.82103 17.5508 10.0343 17.5508 11.2755C17.5508 12.3131 17.2998 13.2913 16.8535 14.1532L17.5508 17.551L14.1529 16.8537C13.2911 17.3 12.3121 17.551 11.2753 17.551Z" stroke="#597CFF" stroke-width="1.67347" stroke-linecap="round" stroke-linejoin="round"/>
</svg>
