<svg width="20" height="21" viewBox="0 0 20 21" fill="none" xmlns="http://www.w3.org/2000/svg">
<path d="M9.95068 14.4478C9.8068 14.4478 9.67399 14.4201 9.55225 14.3647C9.4305 14.3094 9.31152 14.2236 9.19531 14.1074L4.27295 9.13525C4.09033 8.95264 3.99902 8.73128 3.99902 8.47119C3.99902 8.20003 4.09033 7.97038 4.27295 7.78223C4.4611 7.59408 4.68799 7.5 4.95361 7.5C5.21924 7.5 5.45443 7.60238 5.65918 7.80713L9.95068 12.165L14.2422 7.80713C14.4469 7.60238 14.6821 7.5 14.9478 7.5C15.2134 7.5 15.4375 7.59408 15.6201 7.78223C15.8083 7.97038 15.9023 8.20003 15.9023 8.47119C15.9023 8.73128 15.811 8.95264 15.6284 9.13525L10.7061 14.1074C10.4902 14.3343 10.2384 14.4478 9.95068 14.4478Z" fill="#9090A0"/>
</svg>
