<svg width="22" height="22" viewBox="0 0 22 22" fill="none" xmlns="http://www.w3.org/2000/svg">
<path d="M16.2971 4.75156C14.3097 3.38599 11.8557 4.02326 10.5308 5.58607C9.20594 4.02326 6.7519 3.37841 4.76459 4.75156C3.71071 5.47986 3.04827 6.70886 3.0031 8.00615C2.89771 10.9497 5.48725 13.3091 9.4393 16.9278L9.51458 16.9961C10.0867 17.5196 10.9674 17.5196 11.5395 16.9885L11.6223 16.9126C15.5744 13.3015 18.1564 10.9421 18.0585 7.99856C18.0134 6.70886 17.3509 5.47986 16.2971 4.75156ZM10.6061 15.7974L10.5308 15.8733L10.4555 15.7974C6.87235 12.5277 4.50864 10.3655 4.50864 8.17305C4.50864 6.65576 5.6378 5.51779 7.14335 5.51779C8.30261 5.51779 9.43177 6.26885 9.83074 7.30819H11.2384C11.6299 6.26885 12.759 5.51779 13.9183 5.51779C15.4238 5.51779 16.553 6.65576 16.553 8.17305C16.553 10.3655 14.1893 12.5277 10.6061 15.7974Z" fill="#597CFF"/>
</svg>
