<svg width="118" height="26" viewBox="0 0 118 26" fill="none" xmlns="http://www.w3.org/2000/svg">
<path d="M28.0615 11.7456V10.3105H32.7137V11.7456H28.0615ZM28.0615 23.5416V12.1871H32.7137V23.5416H28.0615Z" fill="black"/>
<path d="M39.8657 12.1871V17.7382C39.8657 13.9534 41.1588 12.1083 44.644 12.1083C48.2238 12.1083 49.8481 13.638 49.8481 17.4859V23.5416H45.1959V18.4636C45.1959 16.9181 44.4705 16.1927 42.515 16.1927C40.9696 16.1927 39.8657 16.6974 39.8657 18.3059V23.5416H35.2135V12.1871H39.8657Z" fill="black"/>
<path d="M66.4749 19.9933C66.4749 22.2169 64.6456 23.6204 59.2995 23.6204C54.5054 23.6204 52.1399 22.5481 52.1399 19.7725V19.6779H56.5555V19.8356C56.5555 20.5768 57.3756 20.9553 59.3784 20.9553C61.4916 20.9553 62.0278 20.6872 62.0278 20.1668V20.1352C62.0278 19.6148 61.6177 19.3467 59.2522 19.3467C54.0639 19.3467 52.1399 18.6686 52.1399 16.0035V15.8773C52.1399 13.4172 54.4581 12.1083 59.2995 12.1083C64.1094 12.1083 66.4434 13.433 66.4434 16.0192V16.1296H62.012V15.9246C62.012 15.215 61.1762 14.8207 59.2207 14.8207C57.1706 14.8207 56.5082 15.1677 56.5082 15.625V15.6723C56.5082 16.1454 56.8552 16.3977 59.4415 16.3977C65.0872 16.3977 66.4749 17.3124 66.4749 19.8987V19.9933Z" fill="black"/>
<path d="M81.8906 14.6473H77.1912V23.5416H72.5232V14.6473H67.808V10.689H81.8906V14.6473Z" fill="black"/>
<path d="M93.1516 23.5416L92.2842 21.2076H86.3862L85.5189 23.5416H81.0559L85.8343 10.689H92.8362L97.6618 23.5416H93.1516ZM87.4586 18.3059H91.2118L89.3352 13.2595L87.4586 18.3059Z" fill="black"/>
<path d="M106.344 23.6204C100.619 23.6204 98.2065 21.5388 98.2065 17.2335V16.8393C98.2065 12.9599 100.824 10.6101 106.628 10.6101C112.226 10.6101 115.017 12.7864 115.017 15.9404V15.9877H110.397V15.9404C110.397 14.9469 108.962 14.2372 106.58 14.2372C103.963 14.2372 102.89 15.1046 102.89 17.1862V17.3439C102.89 19.2521 103.947 20.1352 106.58 20.1352C108.394 20.1352 109.924 19.9145 110.618 18.8263H106.612V16.5397H115.017V23.5416H112.62L112.147 21.2707C111.595 22.3903 109.482 23.6204 106.344 23.6204Z" fill="black"/>
<path fill-rule="evenodd" clip-rule="evenodd" d="M20.1014 8.69593C22.033 8.69593 23.599 7.12999 23.599 5.19831C23.599 3.26662 22.033 1.70068 20.1014 1.70068C18.1697 1.70068 16.6037 3.26662 16.6037 5.19831C16.6037 7.12999 18.1697 8.69593 20.1014 8.69593ZM11.5305 23.5522C9.87533 22.7802 9.10814 20.8778 9.71955 19.193L8.47509 21.8618C7.65874 23.6124 5.57778 24.3698 3.82713 23.5535C2.07648 22.7371 1.31907 20.6562 2.13541 18.9055L5.93751 10.7519C6.75385 9.00125 8.83481 8.24384 10.5855 9.06018C12.2422 9.83272 13.0094 11.7378 12.3951 13.4237L13.642 10.7502C14.4584 8.99961 16.5394 8.24234 18.29 9.05879C20.0406 9.87525 20.7979 11.9563 19.9815 13.7069L16.1786 21.8607C15.3621 23.6113 13.2811 24.3686 11.5305 23.5522Z" fill="url(#paint0_linear_191_5602)"/>
<defs>
<linearGradient id="paint0_linear_191_5602" x1="33.0299" y1="-7.34258" x2="1.80716" y2="23.8804" gradientUnits="userSpaceOnUse">
<stop stop-color="#9807FF"/>
<stop offset="1" stop-color="#23DBFF"/>
</linearGradient>
</defs>
</svg>
