<svg width="24" height="24" viewBox="0 0 24 24" fill="none" xmlns="http://www.w3.org/2000/svg">
<path d="M3 9.74099C3 8.67394 3.20048 7.67479 3.60143 6.74354C4.00238 5.80582 4.55855 4.98128 5.26991 4.26991C5.98128 3.55855 6.80259 3.00238 7.73384 2.60143C8.67155 2.20048 9.67394 2 10.741 2C11.808 2 12.8072 2.20048 13.7384 2.60143C14.6762 3.00238 15.5007 3.55855 16.2121 4.26991C16.9234 4.98128 17.4796 5.80582 17.8805 6.74354C18.2815 7.67479 18.482 8.67394 18.482 9.74099C18.482 10.627 18.3397 11.4677 18.0552 12.2631C17.7771 13.0586 17.3891 13.7796 16.8911 14.4263L21.6346 19.199C21.7381 19.3024 21.8157 19.4221 21.8674 19.5579C21.9257 19.6937 21.9548 19.8392 21.9548 19.9944C21.9548 20.2078 21.9062 20.4018 21.8092 20.5764C21.7187 20.751 21.5894 20.8868 21.4212 20.9839C21.2531 21.0873 21.0591 21.1391 20.8392 21.1391C20.684 21.1391 20.5352 21.11 20.393 21.0518C20.2572 21 20.1311 20.9192 20.0147 20.8092L15.242 16.0269C14.6083 16.4796 13.9098 16.8353 13.1467 17.094C12.3836 17.3526 11.5817 17.482 10.741 17.482C9.67394 17.482 8.67155 17.2815 7.73384 16.8805C6.80259 16.4796 5.98128 15.9234 5.26991 15.2121C4.55855 14.5007 4.00238 13.6794 3.60143 12.7481C3.20048 11.8104 3 10.808 3 9.74099ZM4.65878 9.74099C4.65878 10.5817 4.81399 11.3707 5.12441 12.1079C5.44129 12.8387 5.87781 13.4821 6.43397 14.0383C6.9966 14.5945 7.6433 15.031 8.37407 15.3479C9.11131 15.6648 9.90028 15.8232 10.741 15.8232C11.5817 15.8232 12.3674 15.6648 13.0982 15.3479C13.8354 15.031 14.4821 14.5945 15.0383 14.0383C15.5945 13.4821 16.031 12.8387 16.3479 12.1079C16.6648 11.3707 16.8232 10.5817 16.8232 9.74099C16.8232 8.90028 16.6648 8.11454 16.3479 7.38377C16.031 6.64653 15.5945 5.99983 15.0383 5.44367C14.4821 4.88104 13.8354 4.44452 13.0982 4.13411C12.3674 3.81722 11.5817 3.65878 10.741 3.65878C9.90028 3.65878 9.11131 3.81722 8.37407 4.13411C7.6433 4.44452 6.9966 4.88104 6.43397 5.44367C5.87781 5.99983 5.44129 6.64653 5.12441 7.38377C4.81399 8.11454 4.65878 8.90028 4.65878 9.74099Z" fill="#626273"/>
</svg>
