<svg width="62" height="62" viewBox="0 0 62 62" fill="none" xmlns="http://www.w3.org/2000/svg">
<g clip-path="url(#clip0_171_3446)">
<path d="M25.8334 41.3334H36.1667C37.5876 41.3334 38.7501 40.1709 38.7501 38.75V25.8334H42.8576C45.1567 25.8334 46.3192 23.0434 44.6917 21.4159L32.8342 9.55836C31.8267 8.55086 30.1992 8.55086 29.1917 9.55836L17.3342 21.4159C15.7067 23.0434 16.8434 25.8334 19.1426 25.8334H23.2501V38.75C23.2501 40.1709 24.4126 41.3334 25.8334 41.3334ZM15.5001 46.5H46.5001C47.9209 46.5 49.0834 47.6625 49.0834 49.0834C49.0834 50.5042 47.9209 51.6667 46.5001 51.6667H15.5001C14.0792 51.6667 12.9167 50.5042 12.9167 49.0834C12.9167 47.6625 14.0792 46.5 15.5001 46.5Z" fill="#597CFF"/>
</g>
<defs>
<clipPath id="clip0_171_3446">
<rect width="62" height="62" fill="white"/>
</clipPath>
</defs>
</svg>
