<svg width="118" height="26" viewBox="0 0 118 26" fill="none" xmlns="http://www.w3.org/2000/svg">
<path d="M28.0615 11.7456V10.3105H32.7136V11.7456H28.0615ZM28.0615 23.5416V12.1871H32.7136V23.5416H28.0615Z" fill="#212121"/>
<path d="M39.8656 12.1871V17.7382C39.8656 13.9534 41.1587 12.1083 44.6439 12.1083C48.2237 12.1083 49.848 13.638 49.848 17.4859V23.5416H45.1959V18.4636C45.1959 16.9181 44.4705 16.1927 42.515 16.1927C40.9695 16.1927 39.8656 16.6974 39.8656 18.3059V23.5416H35.2134V12.1871H39.8656Z" fill="#212121"/>
<path d="M66.4749 19.9933C66.4749 22.2169 64.6455 23.6204 59.2995 23.6204C54.5054 23.6204 52.1399 22.5481 52.1399 19.7725V19.6779H56.5555V19.8356C56.5555 20.5768 57.3755 20.9553 59.3783 20.9553C61.4915 20.9553 62.0277 20.6872 62.0277 20.1668V20.1352C62.0277 19.6148 61.6177 19.3467 59.2522 19.3467C54.0638 19.3467 52.1399 18.6686 52.1399 16.0035V15.8773C52.1399 13.4172 54.4581 12.1083 59.2995 12.1083C64.1093 12.1083 66.4433 13.433 66.4433 16.0192V16.1296H62.0119V15.9246C62.0119 15.215 61.1761 14.8207 59.2206 14.8207C57.1705 14.8207 56.5082 15.1677 56.5082 15.625V15.6723C56.5082 16.1454 56.8551 16.3977 59.4414 16.3977C65.0871 16.3977 66.4749 17.3124 66.4749 19.8987V19.9933Z" fill="#212121"/>
<path d="M81.8906 14.6473H77.1911V23.5416H72.5232V14.6473H67.8079V10.689H81.8906V14.6473Z" fill="#212121"/>
<path d="M93.1515 23.5416L92.2842 21.2076H86.3862L85.5188 23.5416H81.0559L85.8342 10.689H92.8361L97.6617 23.5416H93.1515ZM87.4585 18.3059H91.2118L89.3352 13.2595L87.4585 18.3059Z" fill="#212121"/>
<path d="M106.344 23.6204C100.619 23.6204 98.2064 21.5388 98.2064 17.2335V16.8393C98.2064 12.9599 100.824 10.6101 106.628 10.6101C112.226 10.6101 115.017 12.7864 115.017 15.9404V15.9877H110.397V15.9404C110.397 14.9469 108.962 14.2372 106.58 14.2372C103.962 14.2372 102.89 15.1046 102.89 17.1862V17.3439C102.89 19.2521 103.947 20.1352 106.58 20.1352C108.394 20.1352 109.924 19.9145 110.617 18.8263H106.612V16.5397H115.017V23.5416H112.62L112.147 21.2707C111.595 22.3903 109.482 23.6204 106.344 23.6204Z" fill="#212121"/>
<path fill-rule="evenodd" clip-rule="evenodd" d="M20.1014 8.69593C22.0331 8.69593 23.5991 7.12999 23.5991 5.19831C23.5991 3.26662 22.0331 1.70068 20.1014 1.70068C18.1698 1.70068 16.6038 3.26662 16.6038 5.19831C16.6038 7.12999 18.1698 8.69593 20.1014 8.69593ZM11.5306 23.5522C9.87542 22.7802 9.10824 20.8778 9.71965 19.193L8.47518 21.8618C7.65884 23.6124 5.57787 24.3698 3.82722 23.5535C2.07657 22.7371 1.31916 20.6562 2.1355 18.9055L5.9376 10.7519C6.75394 9.00125 8.8349 8.24384 10.5856 9.06018C12.2423 9.83272 13.0095 11.7378 12.3952 13.4237L13.6421 10.7502C14.4585 8.99961 16.5395 8.24234 18.2901 9.05879C20.0407 9.87525 20.798 11.9563 19.9816 13.7069L16.1787 21.8607C15.3622 23.6113 13.2812 24.3686 11.5306 23.5522Z" fill="url(#paint0_linear_191_5591)"/>
<defs>
<linearGradient id="paint0_linear_191_5591" x1="33.03" y1="-7.34258" x2="1.80725" y2="23.8804" gradientUnits="userSpaceOnUse">
<stop stop-color="#9807FF"/>
<stop offset="1" stop-color="#23DBFF"/>
</linearGradient>
</defs>
</svg>
