<svg width="86" height="15" viewBox="0 0 86 15" fill="none" xmlns="http://www.w3.org/2000/svg">
<path d="M0.917125 2.032V0.575999H5.63713V2.032H0.917125ZM0.917125 14V2.48H5.63713V14H0.917125ZM12.0934 2.48V8.112C12.0934 4.272 13.4054 2.4 16.9414 2.4C20.5734 2.4 22.2214 3.952 22.2214 7.856V14H17.5014V8.848C17.5014 7.28 16.7654 6.544 14.7814 6.544C13.2134 6.544 12.0934 7.056 12.0934 8.688V14H7.37338V2.48H12.0934ZM38.2906 10.4C38.2906 12.656 36.4346 14.08 31.0106 14.08C26.1466 14.08 23.7466 12.992 23.7466 10.176V10.08H28.2266V10.24C28.2266 10.992 29.0586 11.376 31.0906 11.376C33.2346 11.376 33.7786 11.104 33.7786 10.576V10.544C33.7786 10.016 33.3626 9.744 30.9626 9.744C25.6986 9.744 23.7466 9.056 23.7466 6.352V6.224C23.7466 3.728 26.0986 2.4 31.0106 2.4C35.8906 2.4 38.2586 3.744 38.2586 6.368V6.48H33.7626V6.272C33.7626 5.552 32.9146 5.152 30.9306 5.152C28.8506 5.152 28.1786 5.504 28.1786 5.968V6.016C28.1786 6.496 28.5306 6.752 31.1546 6.752C36.8826 6.752 38.2906 7.68 38.2906 10.304V10.4ZM53.1311 4.976H48.3631V14H43.6271V4.976H38.8431V0.959999H53.1311V4.976ZM63.7563 14L62.8763 11.632H56.8923L56.0123 14H51.4843L56.3323 0.959999H63.4363L68.3323 14H63.7563ZM57.9803 8.688H61.7883L59.8843 3.568L57.9803 8.688ZM76.3409 14.08C70.5329 14.08 68.0849 11.968 68.0849 7.6V7.2C68.0849 3.264 70.7409 0.879999 76.6289 0.879999C82.3089 0.879999 85.1409 3.088 85.1409 6.288V6.336H80.4529V6.288C80.4529 5.28 78.9969 4.56 76.5809 4.56C73.9249 4.56 72.8369 5.44 72.8369 7.552V7.712C72.8369 9.648 73.9089 10.544 76.5809 10.544C78.4209 10.544 79.9729 10.32 80.6769 9.216H76.6129V6.896H85.1409V14H82.7089L82.2289 11.696C81.6689 12.832 79.5249 14.08 76.3409 14.08Z" fill="#212121"/>
</svg>
