<svg width="149" height="149" viewBox="0 0 149 149" fill="none" xmlns="http://www.w3.org/2000/svg">
<rect x="0.109375" y="0.292725" width="148.121" height="148.121" rx="40.8609" fill="url(#paint0_linear_191_3857)"/>
<path fill-rule="evenodd" clip-rule="evenodd" d="M104.289 58.0508C112.047 58.0508 118.336 51.762 118.336 44.0043C118.336 36.2466 112.047 29.9578 104.289 29.9578C96.5318 29.9578 90.2429 36.2466 90.2429 44.0043C90.2429 51.762 96.5318 58.0508 104.289 58.0508ZM69.8688 117.714C63.2215 114.614 60.1404 106.973 62.5958 100.207L57.598 110.925C54.3196 117.956 45.9624 120.998 38.9317 117.719C31.901 114.441 28.8593 106.083 32.1377 99.0528L47.407 66.3077C50.6855 59.277 59.0427 56.2352 66.0734 59.5137C72.7267 62.6162 75.8078 70.267 73.3409 77.0377L78.3484 66.3009C81.6273 59.2704 89.9847 56.2292 97.0152 59.5081C104.046 62.787 107.087 71.1444 103.808 78.1749L88.5355 110.921C85.2566 117.952 76.8992 120.993 69.8688 117.714Z" fill="white"/>
<defs>
<linearGradient id="paint0_linear_191_3857" x1="212.332" y1="-60.0958" x2="3.86786" y2="152.093" gradientUnits="userSpaceOnUse">
<stop stop-color="#9807FF"/>
<stop offset="1" stop-color="#23DBFF"/>
</linearGradient>
</defs>
</svg>
