<svg width="150" height="149" viewBox="0 0 150 149" fill="none" xmlns="http://www.w3.org/2000/svg">
<rect x="0.93335" y="0.292725" width="148.121" height="148.121" rx="40.8609" fill="white"/>
<path fill-rule="evenodd" clip-rule="evenodd" d="M105.113 58.0508C112.871 58.0508 119.16 51.762 119.16 44.0043C119.16 36.2466 112.871 29.9578 105.113 29.9578C97.3557 29.9578 91.0668 36.2466 91.0668 44.0043C91.0668 51.762 97.3557 58.0508 105.113 58.0508ZM70.6927 117.714C64.0455 114.614 60.9645 106.974 63.4196 100.208L58.422 110.925C55.1436 117.956 46.7864 120.998 39.7557 117.719C32.725 114.441 29.6832 106.083 32.9617 99.0528L48.231 66.3077C51.5095 59.277 59.8667 56.2352 66.8973 59.5137C73.5506 62.6161 76.6317 70.2667 74.1651 77.0372L79.1723 66.3009C82.4512 59.2704 90.8086 56.2292 97.8391 59.5081C104.87 62.787 107.911 71.1444 104.632 78.1749L89.3595 110.921C86.0805 117.952 77.7231 120.993 70.6927 117.714Z" fill="url(#paint0_linear_191_3859)"/>
<defs>
<linearGradient id="paint0_linear_191_3859" x1="157.035" y1="-6.36022" x2="31.6435" y2="119.032" gradientUnits="userSpaceOnUse">
<stop stop-color="#9807FF"/>
<stop offset="1" stop-color="#23DBFF"/>
</linearGradient>
</defs>
</svg>
